<svg id="Schwarzes_Telefon_1" data-name="Schwarzes Telefon 1" xmlns="http://www.w3.org/2000/svg" viewBox="0 0 1173.67 150"><defs><style>.cls-1{fill:#f3ffd3;}.cls-2{fill:#fa783b;}.cls-3{fill:#231f20;}.cls-4{fill:#0867c1;}</style></defs><title>footer</title><polygon class="cls-1" points="1173.67 138.14 1173.67 150 0 150 0 0 572.49 0 571.51 2.19 603.44 9.4 633.31 16.14 665.24 23.35 695.11 30.09 727.04 37.3 756.91 44.05 788.84 51.26 818.71 58 850.64 65.21 880.51 71.95 912.45 79.16 942.31 85.91 974.24 93.11 1007.53 100.63 1039.47 107.84 1069.33 114.58 1101.26 121.79 1131.13 128.54 1163.06 135.75 1173.67 138.14"/><polygon class="cls-2" points="535.83 0 468.38 150 433.21 150 500.66 0 535.83 0"/><polygon class="cls-2" points="467.76 0 400.31 150 365.13 150 432.58 0 467.76 0"/><polygon class="cls-2" points="399.69 0 332.23 150 297.06 150 364.51 0 399.69 0"/><polygon class="cls-2" points="331.61 0 264.16 150 228.98 150 296.44 0 331.61 0"/><polygon class="cls-2" points="263.54 0 196.08 150 160.91 150 228.36 0 263.54 0"/><polygon class="cls-2" points="195.46 0 128.01 150 92.83 150 160.29 0 195.46 0"/><polygon class="cls-2" points="127.39 0 59.94 150 24.76 150 92.21 0 127.39 0"/><polygon class="cls-2" points="974.24 93.11 948.66 150 913.49 150 942.31 85.91 974.24 93.11"/><polygon class="cls-2" points="912.45 79.16 880.59 150 845.41 150 880.51 71.95 912.45 79.16"/><polygon class="cls-2" points="850.64 65.21 812.51 150 777.34 150 818.71 58 850.64 65.21"/><polygon class="cls-2" points="788.84 51.26 744.44 150 709.26 150 756.91 44.05 788.84 51.26"/><polygon class="cls-2" points="727.04 37.3 676.36 150 641.19 150 695.11 30.09 727.04 37.3"/><polygon class="cls-2" points="665.24 23.35 608.29 150 573.11 150 633.31 16.14 665.24 23.35"/><polygon class="cls-2" points="603.44 9.4 540.22 150 505.05 150 571.51 2.19 603.44 9.4"/><polygon class="cls-2" points="1131.13 128.54 1163.06 135.75 1156.65 150 1121.48 150 1131.13 128.54"/><polygon class="cls-2" points="1101.26 121.79 1088.58 150 1053.4 150 1069.33 114.58 1101.26 121.79"/><polygon class="cls-2" points="1039.47 107.84 1020.51 150 985.33 150 1007.53 100.63 1039.47 107.84"/><polygon class="cls-2" points="59.31 0 0 131.9 0 53.69 24.14 0 59.31 0"/><polygon class="cls-3" points="607.67 0 603.44 9.4 571.51 2.19 572.49 0 607.67 0"/><polygon class="cls-4" points="640.57 0 633.31 16.14 603.44 9.4 607.67 0 640.57 0"/><polygon class="cls-3" points="675.74 0 665.24 23.35 633.31 16.14 640.57 0 675.74 0"/><polygon class="cls-4" points="708.64 0 695.11 30.09 665.24 23.35 675.74 0 708.64 0"/><polygon class="cls-3" points="743.82 0 727.04 37.3 695.11 30.09 708.64 0 743.82 0"/><polygon class="cls-4" points="776.72 0 756.91 44.05 727.04 37.3 743.82 0 776.72 0"/><polygon class="cls-3" points="811.89 0 788.84 51.26 756.91 44.05 776.72 0 811.89 0"/><polygon class="cls-3" points="879.97 0 850.64 65.21 818.71 58 844.79 0 879.97 0"/><polygon class="cls-4" points="844.79 0 818.71 58 788.84 51.26 811.89 0 844.79 0"/><polygon class="cls-4" points="912.86 0 880.51 71.95 850.64 65.21 879.97 0 912.86 0"/><polygon class="cls-3" points="948.05 0 912.45 79.16 880.51 71.95 912.86 0 948.05 0"/><polygon class="cls-4" points="980.94 0 942.31 85.91 912.45 79.16 948.05 0 980.94 0"/><polygon class="cls-4" points="1052.78 0 1007.53 100.63 974.24 93.11 1016.11 0 1052.78 0"/><polygon class="cls-3" points="1016.11 0 974.24 93.11 942.31 85.91 980.94 0 1016.11 0"/><polygon class="cls-3" points="1087.96 0 1039.47 107.84 1007.53 100.63 1052.78 0 1087.96 0"/><polygon class="cls-4" points="1120.86 0 1069.33 114.58 1039.47 107.84 1087.96 0 1120.86 0"/><polygon class="cls-3" points="1156.03 0 1101.26 121.79 1069.33 114.58 1120.86 0 1156.03 0"/><polygon class="cls-3" points="1173.67 33.94 1173.67 112.16 1163.06 135.75 1131.13 128.54 1173.67 33.94"/><polygon class="cls-4" points="1173.67 0 1173.67 33.94 1131.13 128.54 1101.26 121.79 1156.03 0 1173.67 0"/><polygon class="cls-4" points="1173.67 112.16 1173.67 138.14 1163.06 135.75 1173.67 112.16"/></svg>