<svg id="Schwarzes_Telefon_1" data-name="Schwarzes Telefon 1" xmlns="http://www.w3.org/2000/svg" xmlns:xlink="http://www.w3.org/1999/xlink" viewBox="0 0 977.08201 595.14979"><defs><style>.cls-1,.cls-10,.cls-11,.cls-12,.cls-13,.cls-14,.cls-15,.cls-16,.cls-17,.cls-2,.cls-3,.cls-4,.cls-5,.cls-6,.cls-7,.cls-8,.cls-9{opacity:0.5;}.cls-1{fill:url(#Unbenannter_Verlauf_6);}.cls-2{fill:url(#Unbenannter_Verlauf_6-2);}.cls-3{fill:url(#Unbenannter_Verlauf_6-3);}.cls-4{fill:url(#Unbenannter_Verlauf_6-4);}.cls-5{fill:url(#Unbenannter_Verlauf_6-5);}.cls-6{fill:url(#Unbenannter_Verlauf_6-6);}.cls-7{fill:url(#Unbenannter_Verlauf_6-7);}.cls-8{fill:url(#Unbenannter_Verlauf_6-8);}.cls-9{fill:url(#Unbenannter_Verlauf_8);}.cls-10{fill:url(#Unbenannter_Verlauf_8-2);}.cls-11{fill:url(#Unbenannter_Verlauf_4);}.cls-12{fill:url(#Unbenannter_Verlauf_4-2);}.cls-13{fill:url(#Unbenannter_Verlauf_4-3);}.cls-14{fill:url(#Unbenannter_Verlauf_4-4);}.cls-15{fill:url(#Unbenannter_Verlauf_4-5);}.cls-16{fill:url(#Unbenannter_Verlauf_4-6);}.cls-17{fill:url(#Unbenannter_Verlauf_4-7);}</style><linearGradient id="Unbenannter_Verlauf_6" x1="446.37796" y1="343.26808" x2="204.37796" y2="233.26808" gradientUnits="userSpaceOnUse"><stop offset="0" stop-color="#fff"/><stop offset="0.95863" stop-color="#56d4c9"/></linearGradient><linearGradient id="Unbenannter_Verlauf_6-2" x1="245.56219" y1="165.02172" x2="466.26549" y2="165.02172" gradientTransform="translate(35.04393 390.7413) rotate(-60)" xlink:href="#Unbenannter_Verlauf_6"/><linearGradient id="Unbenannter_Verlauf_6-3" x1="394.06997" y1="122.03348" x2="548.77076" y2="122.03348" gradientTransform="translate(349.38689 593.45384) rotate(-90)" xlink:href="#Unbenannter_Verlauf_6"/><linearGradient id="Unbenannter_Verlauf_6-4" x1="480.04424" y1="151.42288" x2="585.08471" y2="151.42288" gradientTransform="translate(918.06739 548.84119) rotate(-150)" xlink:href="#Unbenannter_Verlauf_6"/><linearGradient id="Unbenannter_Verlauf_6-5" x1="635.81048" y1="495.5749" x2="605.81198" y2="446.07737" gradientTransform="translate(479.25489 -295.63398) rotate(45)" xlink:href="#Unbenannter_Verlauf_6"/><linearGradient id="Unbenannter_Verlauf_6-6" x1="604.14722" y1="397.93202" x2="679.22208" y2="397.93202" gradientTransform="translate(469.32551 -337.18798) rotate(45)" xlink:href="#Unbenannter_Verlauf_6"/><linearGradient id="Unbenannter_Verlauf_6-7" x1="652.82821" y1="361.65495" x2="715.01794" y2="361.65495" gradientTransform="translate(456.0451 -377.68036) rotate(45)" xlink:href="#Unbenannter_Verlauf_6"/><linearGradient id="Unbenannter_Verlauf_6-8" x1="542.68391" y1="497.58185" x2="545.68376" y2="404.5865" gradientTransform="translate(482.60257 -250.75332) rotate(45)" xlink:href="#Unbenannter_Verlauf_6"/><linearGradient id="Unbenannter_Verlauf_8" x1="674.57592" y1="193.45237" x2="887.34957" y2="193.45237" gradientTransform="translate(181.13918 -342.77363) rotate(27.88316)" gradientUnits="userSpaceOnUse"><stop offset="0" stop-color="#fff"/><stop offset="0.90663" stop-color="#fef9d6"/></linearGradient><linearGradient id="Unbenannter_Verlauf_8-2" x1="66.93976" y1="206.53906" x2="280.43552" y2="206.53906" gradientTransform="matrix(1, 0, 0, 1, 0, 0)" xlink:href="#Unbenannter_Verlauf_8"/><linearGradient id="Unbenannter_Verlauf_4" x1="435.00236" y1="290.04437" x2="777.03915" y2="290.04437" gradientTransform="translate(206.00214 -249.74448) rotate(27.88316)" gradientUnits="userSpaceOnUse"><stop offset="0" stop-color="#fff"/><stop offset="1" stop-color="#fb7c41"/></linearGradient><linearGradient id="Unbenannter_Verlauf_4-2" x1="420.30263" y1="279.7579" x2="244.30263" y2="339.7579" gradientTransform="matrix(1, 0, 0, 1, 0, 0)" xlink:href="#Unbenannter_Verlauf_4"/><linearGradient id="Unbenannter_Verlauf_4-3" x1="420.79752" y1="299.13828" x2="394.13085" y2="412.47161" gradientTransform="translate(-125.50005 355.6884) rotate(-41.22508)" xlink:href="#Unbenannter_Verlauf_4"/><linearGradient id="Unbenannter_Verlauf_4-4" x1="470.31684" y1="338.63379" x2="474.81662" y2="493.12606" gradientTransform="translate(-137.5891 406.58882) rotate(-41.22508)" xlink:href="#Unbenannter_Verlauf_4"/><linearGradient id="Unbenannter_Verlauf_4-5" x1="583.17801" y1="358.75349" x2="479.84468" y2="478.08683" gradientTransform="translate(-133.6188 457.82642) rotate(-41.22508)" xlink:href="#Unbenannter_Verlauf_4"/><linearGradient id="Unbenannter_Verlauf_4-6" x1="415.88153" y1="218.40846" x2="678.76142" y2="218.40846" gradientTransform="matrix(1, 0, 0, 1, 0, 0)" xlink:href="#Unbenannter_Verlauf_4"/><linearGradient id="Unbenannter_Verlauf_4-7" x1="384.67133" y1="185.61335" x2="462.40131" y2="185.61335" gradientTransform="matrix(1, 0, 0, 1, 0, 0)" xlink:href="#Unbenannter_Verlauf_4"/></defs><title>hands</title><polygon class="cls-1" points="522.069 271.769 516.549 282.209 483.699 344.28 423.969 457.17 381.079 434.479 377.929 432.81 316.829 400.479 309.419 396.56 255.339 367.939 180.029 328.1 184.429 319.769 245.739 203.9 258.889 179.06 278.119 142.699 278.169 142.729 300.399 154.489 377.379 195.219 386.859 200.229 388.789 201.249 418.069 216.749 442.749 229.8 460.019 238.939 465.069 241.61 501.579 260.93 512.789 266.86 522.069 271.769"/><path class="cls-2" d="M355.9138,43.27151h.00008a36.8824,36.8824,0,0,1,36.8824,36.8824V249.88953a36.8824,36.8824,0,0,1-36.8824,36.8824h-.00007a36.88239,36.88239,0,0,1-36.88239-36.88239V80.1539A36.88239,36.88239,0,0,1,355.9138,43.27151Z" transform="translate(320.86994 -225.71957) rotate(60)"/><path class="cls-3" d="M471.42033,44.68308h.00007A36.88239,36.88239,0,0,1,508.3028,81.56548v80.936a36.88239,36.88239,0,0,1-36.88239,36.88239h-.00007a36.8824,36.8824,0,0,1-36.8824-36.8824v-80.936a36.88239,36.88239,0,0,1,36.88239-36.88239Z" transform="translate(593.45384 -349.38689) rotate(90)"/><rect class="cls-4" x="498.58143" y="80.31304" width="67.9661" height="142.21968" rx="33.98301" ry="33.98301" transform="translate(1069.49028 16.2767) rotate(150)"/><rect class="cls-5" x="570.62339" y="382.49762" width="51.73168" height="96.39442" rx="25.86581" ry="25.86581" transform="translate(-129.83959 547.92918) rotate(-45)"/><rect class="cls-6" x="615.81881" y="355.51575" width="51.73168" height="84.83254" rx="25.86581" ry="25.86581" transform="translate(-93.43535 570.29116) rotate(-45)"/><rect class="cls-7" x="658.05724" y="328.34985" width="51.73168" height="66.6102" rx="25.86581" ry="25.86581" transform="translate(-55.41224 589.53293) rotate(-45)"/><rect class="cls-8" x="518.12148" y="423.87107" width="51.73168" height="66.6102" rx="25.86581" ry="25.86581" transform="translate(-163.94217 518.56092) rotate(-45)"/><rect class="cls-9" x="719.26142" y="53.25148" width="123.40265" height="280.40177" rx="38.948" ry="38.948" transform="translate(0.19545 387.69205) rotate(-27.88316)"/><path class="cls-10" d="M87.6471,319.822l40.22347,21.28209c18.93444,10.01815,42.62292,2.723,54.64107-16.21145l94.70587-178.99548c8.01814-18.93444.723-42.62293-18.21145-52.64107L218.78259,71.974a39.06252,39.06252,0,0,0-52.64108,16.21146L71.43565,267.18094A39.06251,39.06251,0,0,0,87.6471,319.822Z"/><rect class="cls-11" x="468.02765" y="185.17158" width="275.9862" height="209.74557" transform="translate(-65.28795 317.09095) rotate(-27.88316)"/><path class="cls-12" d="M441.78144,239.34846a36.72707,36.72707,0,0,1-5.79,19.85,27.38974,27.38974,0,0,1-1.60987,2.30994c-.53.72-1.10009,1.42-1.7,2.11011L321.1015,390.96833l-2.58007,2.94006a36.43142,36.43142,0,0,1-10.29,8.17005,36.88618,36.88618,0,0,1-45.18994-56.78l114.15991-130.3c.23022-.26.45-.52.69018-.77a36.62993,36.62993,0,0,1,9.71-7.46,37.22188,37.22188,0,0,1,29.87989-2.13,36.68439,36.68439,0,0,1,24.08007,30.68006A36.16934,36.16934,0,0,1,441.78144,239.34846Z"/><path class="cls-13" d="M410.08248,221.177h.00007a36.8824,36.8824,0,0,1,36.8824,36.8824V431.29464A36.88239,36.88239,0,0,1,410.08255,468.177h-.00007a36.88239,36.88239,0,0,1-36.88239-36.88239V258.05943A36.88239,36.88239,0,0,1,410.08248,221.177Z" transform="translate(328.79725 -184.81577) rotate(41.22508)"/><path class="cls-14" d="M471.70217,262.69777h.00007a36.8824,36.8824,0,0,1,36.8824,36.8824V472.81538a36.88239,36.88239,0,0,1-36.88239,36.88239h-.00007a36.88239,36.88239,0,0,1-36.88239-36.88239V299.58016A36.88239,36.88239,0,0,1,471.70217,262.69777Z" transform="translate(371.43408 -215.13241) rotate(41.22508)"/><rect class="cls-15" x="512.65519" y="281.99346" width="58.2892" height="249.09041" rx="29.14457" ry="29.14457" transform="translate(402.21445 -256.28607) rotate(41.22508)"/><path class="cls-16" d="M678.76142,212.18842v12.44007a47.89579,47.89579,0,0,1-47.76,47.75H463.63153a47.37829,47.37829,0,0,1-27.85009-9.03c-.82007-.59009-1.61988-1.21009-2.39991-1.84009-.08007-.07-.16015-.13989-.24-.2a47.71278,47.71278,0,0,1-17.26-36.67993V212.18842a47.73982,47.73982,0,0,1,46.51978-47.7301c.41015-.0199.82007-.0199,1.23022-.0199H631.00141A47.89571,47.89571,0,0,1,678.76142,212.18842Z"/><path class="cls-17" d="M462.40131,164.45832a47.942,47.942,0,0,0-45.91992,40.18005,37.22188,37.22188,0,0,0-29.87989,2.13l-1.93017-1.02C408.27143,181.27839,434.43158,164.9184,462.40131,164.45832Z"/></svg>