<svg id="Schwarzes_Telefon_1" data-name="Schwarzes Telefon 1" xmlns="http://www.w3.org/2000/svg" viewBox="0 0 1173.67 150"><defs><style>.cls-1{fill:#f3ffd3;}.cls-2{fill:#fa783b;}</style></defs><title>wireframe</title><polygon class="cls-1" points="389.79 0 378.19 5.64 349.32 19.67 322.33 32.79 293.46 46.83 266.46 59.95 237.6 73.98 210.6 87.1 181.73 101.14 154.74 114.26 125.87 128.29 98.87 141.42 81.21 150 -0.52 150 -0.2 72.48 0.1 0 389.79 0"/><polygon class="cls-2" points="34.66 150 -0.52 150 -0.2 72.48 34.66 150"/><polygon class="cls-2" points="98.87 141.42 81.21 150 67.56 150 0.1 0 35.28 0 98.87 141.42"/><polygon class="cls-2" points="154.74 114.26 125.87 128.29 68.18 0 103.35 0 154.74 114.26"/><polygon class="cls-2" points="210.6 87.1 181.73 101.14 136.25 0 171.43 0 210.6 87.1"/><polygon class="cls-2" points="266.46 59.95 237.6 73.98 204.33 0 239.5 0 266.46 59.95"/><polygon class="cls-2" points="322.33 32.79 293.46 46.83 272.4 0 307.58 0 322.33 32.79"/><polygon class="cls-2" points="378.19 5.64 349.32 19.67 340.48 0 375.65 0 378.19 5.64"/></svg>