<svg id="Schwarzes_Telefon_1" data-name="Schwarzes Telefon 1" xmlns="http://www.w3.org/2000/svg" viewBox="0 0 406.5 428.09121"><defs><style>.cls-1{fill:#fb7c41;}</style></defs><title>wireframe</title><path class="cls-1" d="M309.98516,181.73555a105.70438,105.70438,0,0,1-4.95,21.02A143.38207,143.38207,0,0,0,309.98516,181.73555Z"/><path class="cls-1" d="M203.19512,364.94551a.54884.54884,0,0,1-.07007-.08985c-.01-.01-.0199-.01-.0199-.02l.0199-.03.01.03Z"/><path class="cls-1" d="M310.89507,169.23555a69.49756,69.49756,0,0,1-.90991,12.5,143.38207,143.38207,0,0,1-4.95,21.02.25459.25459,0,0,1-.02.07006c-9.78,31.66993-35.43006,85.11011-101.88013,162.01l-.01-.03-.0199.03c-70.65-81.76-95.18005-137.01-103.55005-167.76-.12-.40991-.23-.83007-.34-1.24-.11-.41992-.22-.83007-.32007-1.25-.21-.82006-.3999-1.62011-.59-2.3999-.09-.39014-.18-.78027-.26989-1.16015-3.62012-15.76-2.57007-23.43995-2.57007-23.43995a107.725,107.725,0,1,1,215.45,0C310.91509,168.13545,310.91509,168.68574,310.89507,169.23555Z"/><path class="cls-1" d="M203.13506,364.83564c0,.01-.01.01-.01.02-.02991.02979-.04993.06006-.07983.08985l.05993-.10987.0199-.03Z"/></svg>